<?xml version="1.0" standalone="no"?>
<!DOCTYPE svg PUBLIC "-//W3C//DTD SVG 20010904//EN"
 "http://www.w3.org/TR/2001/REC-SVG-20010904/DTD/svg10.dtd">
<svg version="1.0" xmlns="http://www.w3.org/2000/svg"
 width="1096.000000pt" height="1109.000000pt" viewBox="0 0 1096.000000 1109.000000"
 preserveAspectRatio="xMidYMid meet">

<g transform="translate(0.000000,1109.000000) scale(0.100000,-0.100000)"
fill="#000000" stroke="none">
<path d="M4660 11064 c-982 -133 -1906 -689 -2452 -1475 -395 -569 -651 -1317
-676 -1977 l-7 -173 -101 -39 c-335 -126 -716 -409 -965 -718 -195 -241 -367
-585 -425 -852 -17 -75 -19 -132 -19 -475 0 -371 1 -395 23 -493 117 -523 488
-1038 972 -1351 52 -34 147 -88 211 -121 349 -178 516 -209 1240 -229 321 -9
566 -2 655 20 79 19 143 58 170 104 65 111 26 248 -86 305 -94 48 -162 54
-930 80 -420 15 -601 42 -788 119 -245 101 -548 369 -724 641 -284 436 -351
970 -187 1474 86 264 264 527 486 722 181 158 373 261 700 374 251 88 247 84
257 236 11 178 45 569 62 714 67 583 310 1133 684 1548 135 150 352 357 462
443 414 322 911 538 1428 620 251 40 673 35 949 -11 698 -118 1247 -431 1789
-1020 337 -367 510 -683 666 -1222 66 -229 77 -303 83 -548 5 -223 12 -273 43
-290 10 -5 132 -19 272 -30 586 -46 734 -79 1018 -222 213 -107 316 -183 495
-363 177 -177 257 -285 359 -485 138 -271 196 -515 196 -815 -1 -529 -220
-1018 -632 -1410 -218 -208 -523 -387 -716 -420 -104 -18 -373 -32 -967 -50
-653 -20 -916 -33 -1045 -51 -185 -27 -271 -85 -286 -194 -9 -70 11 -128 62
-177 84 -81 181 -92 789 -93 466 0 997 13 1230 31 255 19 391 58 670 194 375
183 698 451 942 781 202 274 348 600 373 833 6 58 12 299 13 545 2 490 -3 548
-65 734 -74 224 -291 607 -451 800 -95 113 -268 278 -378 360 -341 253 -666
380 -1208 472 -186 32 -231 43 -231 57 0 27 -98 437 -135 567 -136 473 -344
877 -651 1266 -97 123 -360 380 -494 484 -147 114 -363 257 -508 335 -453 245
-999 413 -1466 451 -183 14 -579 11 -706 -6z"/>
<path d="M3693 8416 c-395 -76 -720 -327 -885 -684 -91 -197 -122 -386 -115
-692 5 -232 21 -342 72 -497 142 -429 461 -711 916 -809 110 -24 399 -24 540
-1 257 44 514 176 672 346 102 111 207 295 223 394 4 20 10 37 14 37 4 0 15
-19 25 -42 28 -71 120 -218 189 -305 145 -180 340 -318 550 -389 214 -73 592
-84 828 -23 326 83 608 319 768 644 114 233 154 412 154 695 1 219 -18 345
-75 508 -130 367 -406 636 -779 761 -299 101 -655 95 -935 -16 -294 -115 -526
-326 -671 -606 l-50 -98 -13 43 c-44 150 -248 405 -411 513 -136 90 -349 181
-495 211 -102 21 -431 27 -522 10z m382 -631 c155 -40 289 -131 384 -259 71
-97 103 -126 173 -162 98 -50 279 -50 380 0 l48 23 -8 -56 c-9 -72 -9 -496 0
-538 l7 -32 -47 30 c-92 57 -217 57 -336 1 -81 -39 -131 -85 -215 -195 -106
-141 -154 -178 -288 -223 -93 -31 -249 -43 -333 -25 -207 44 -381 223 -450
461 -28 95 -39 341 -21 446 46 260 219 468 441 530 63 17 195 17 265 -1z
m2371 0 c124 -21 213 -67 302 -154 168 -163 213 -297 215 -631 0 -134 -2 -163
-20 -212 -69 -188 -233 -350 -418 -414 -199 -68 -458 -14 -604 126 -134 128
-201 315 -201 560 0 65 6 151 14 192 44 226 167 398 351 489 123 61 205 71
361 44z"/>
<path d="M7748 6350 c-115 -24 -200 -68 -286 -146 -125 -114 -209 -245 -233
-365 -31 -153 71 -305 228 -340 47 -11 65 -10 117 3 57 15 59 15 36 -1 -130
-86 -269 -225 -323 -322 -79 -143 -103 -309 -58 -401 47 -98 141 -150 307
-169 131 -16 662 -6 765 14 158 31 239 109 239 232 0 58 -18 102 -61 144 -62
62 -142 84 -353 99 l-108 7 97 63 c178 117 294 246 341 381 20 55 24 86 24
184 0 200 -38 308 -153 425 -103 105 -227 172 -367 198 -95 17 -106 17 -212
-6z m179 -579 l23 -34 -22 -25 c-24 -26 -159 -119 -242 -167 l-49 -29 44 45
c33 33 52 64 73 122 23 63 35 83 65 103 47 32 79 28 108 -15z"/>
<path d="M3678 4930 c-108 -32 -146 -106 -168 -321 -15 -154 -29 -853 -31
-1559 -1 -338 -5 -768 -8 -955 l-6 -340 -170 165 c-257 250 -366 330 -453 330
-63 0 -157 -70 -183 -137 -31 -82 8 -189 112 -308 116 -132 487 -520 696 -727
210 -208 236 -227 289 -214 30 8 388 357 706 690 218 226 296 328 317 411 23
90 -22 175 -115 221 -123 60 -216 8 -532 -299 -73 -72 -135 -127 -138 -125 -3
3 -9 594 -14 1314 -10 1310 -16 1555 -46 1687 -14 58 -23 77 -58 112 -55 55
-130 76 -198 55z"/>
<path d="M6296 4122 c-8 -14 -26 -911 -26 -1312 0 -441 -19 -1636 -28 -1774
l-7 -98 -185 177 c-290 277 -380 336 -486 316 -104 -20 -159 -89 -159 -201 0
-112 26 -144 494 -634 152 -158 346 -355 432 -437 l157 -149 353 358 c625 632
729 768 697 918 -18 84 -121 164 -209 164 -30 0 -115 -39 -176 -82 -61 -42
-175 -142 -322 -284 l-118 -113 -6 277 c-4 152 -7 511 -7 797 -1 677 -17 2011
-26 2053 l-6 32 -184 0 c-100 0 -185 -4 -188 -8z"/>
<path d="M4584 3650 c-251 -16 -348 -49 -405 -138 -56 -89 -30 -214 57 -274
91 -64 279 -80 919 -81 638 -2 767 16 862 115 62 65 72 154 25 229 -54 85
-135 120 -322 139 -135 14 -951 21 -1136 10z"/>
</g>
</svg>
